# xmcd
#
# Track frame offsets:
#       150
#       25978
#       45075
#       58412
#       72538
#       88642
#       110749
#       126746
#       141128
#       159013
#       171239
#       188345
#       210067
#       228028
#
# Disc length: 3293 seconds
#
# Revision: 2
# Processed by: cddbd v1.4PL0 Copyright (c) Steve Scherf et al.
# Submitted via: WhereIsIt 3.23
#
DISCID=b70cdb0e
DTITLE=Norah Jones - Live in New Orleans
DYEAR=1900
DGENRE=
TTITLE0=Cold, Cold Heart
TTITLE1=Nightingale
TTITLE2=One Flight Down
TTITLE3=Seven Years
TTITLE4=Feelin' The Same Way
TTITLE5=Comes Love
TTITLE6=Something Is Calling You
TTITLE7=Come Away With Me
TTITLE8=What Am I To You
TTITLE9=Painter Song
TTITLE10=Lonestar
TTITLE11=I've Got To See You Again
TTITLE12=Bessie Smith
TTITLE13=Don't now Why
EXTD=DVD
EXTT0=
EXTT1=
EXTT2=
EXTT3=
EXTT4=
EXTT5=
EXTT6=
EXTT7=
EXTT8=
EXTT9=
EXTT10=
EXTT11=
EXTT12=
EXTT13=
PLAYORDER=
